# xmcd
#
# Track frame offsets: 
#        150
#        23405
#        40044
#        56033
#        85076
#        103657
#        119109
#        141157
#        154785
#        173083
#        194941
#        209162
#
# Disc length: 3044 seconds
#
# Revision: 0
# Processed by: cddbd v1.5.2PL0 Copyright (c) Steve Scherf et al.
# Submitted via: ExactAudioCopy v1.3
#
DISCID=ae0be20c
DTITLE=Velma Powell and Bluedays - Blues To The Bone
DYEAR=2017
DGENRE=Blues
TTITLE0=My Name
TTITLE1=Nothin' But the Cat
TTITLE2=Tell Better Lies
TTITLE3=Blues to the Bone
TTITLE4=Badass Blues
TTITLE5=Stand In Line
TTITLE6=Let's Do it Again
TTITLE7=One Hand in Front
TTITLE8=I Don't Wanna Dance
TTITLE9=Sew What
TTITLE10=Too Late
TTITLE11=Let's Storm This Place
EXTD=
EXTT0=
EXTT1=
EXTT2=
EXTT3=
EXTT4=
EXTT5=
EXTT6=
EXTT7=
EXTT8=
EXTT9=
EXTT10=
EXTT11=
PLAYORDER=
